<?xml version="1.0" encoding="UTF-8"?>
<svg width="200" height="48" viewBox="0 0 200 48" fill="none" xmlns="http://www.w3.org/2000/svg" role="img" aria-label="BLENDZ logo">
  <defs>
    <linearGradient id="g" x1="0" y1="0" x2="200" y2="48" gradientUnits="userSpaceOnUse">
      <stop offset="0" stop-color="#1E40AF"/>
      <stop offset="1" stop-color="#3B82F6"/>
    </linearGradient>
  </defs>
  <!-- Logomark: stylized BZ in a rounded rect chip -->
  <g>
    <rect x="2" y="2" width="44" height="44" rx="12" fill="url(#g)"/>
    <path d="M14 14h10c4 0 6 2 6 5 0 2-1.2 3.5-3.2 4.2 2.6.7 4.2 2.4 4.2 5 0 3.5-2.5 5.8-6.7 5.8H14V14zm8.8 8c2 0 3.2-.9 3.2-2.3S24.8 17.5 22.8 17.5H18v4.5h4.8zm1 10.5c2.3 0 3.7-1 3.7-2.8 0-1.7-1.4-2.7-3.7-2.7H18v5.5h5.8z" fill="#fff"/>
    <path d="M33.5 14H42v2h-6l6 7.2v1.8h-8v-2h5.5L33.5 15.8V14z" fill="#fff"/>
  </g>
  <!-- Wordmark -->
  <g transform="translate(56, 8)">
    <text x="0" y="26" font-family="Inter, Arial, sans-serif" font-weight="700" font-size="26" fill="#1E40AF" letter-spacing="1">
      BLENDZ
    </text>
  </g>
</svg>
